<svg id="Capa_1" enable-background="new 0 0 512 512" height="512" viewBox="0 0 512 512" width="512" xmlns="http://www.w3.org/2000/svg" xmlns:xlink="http://www.w3.org/1999/xlink"><linearGradient id="SVGID_1_" gradientUnits="userSpaceOnUse" x1="256" x2="256" y1="512" y2="0"><stop offset="0" stop-color="#00b59c"/><stop offset="1" stop-color="#9cffac"/></linearGradient><g><g><path d="m467 0c-24.813 0-45 20.187-45 45 0 6.939 1.581 13.514 4.398 19.389l-86.611 86.611h-129.863c-7.301-50.817-51.119-90-103.924-90-58.448 0-106 47.103-106 105s47.552 105 106 105c19.34 0 38.247-5.306 54.677-15.344 2.978-1.819 5.084-4.515 6.217-7.549l74.106 74.106v106.759l-83.32 55.547c-5.5 3.667-7.951 10.501-6.036 16.827 1.916 6.327 7.746 10.654 14.356 10.654h180c6.61 0 12.44-4.327 14.356-10.653 1.915-6.326-.536-13.161-6.036-16.827l-83.32-55.548v-106.759l145.606-145.606c4.29-4.29 5.573-10.742 3.252-16.347-2.322-5.605-7.791-9.26-13.858-9.26h-23.787l65.398-65.398c5.875 2.817 12.45 4.398 19.389 4.398 24.813 0 45-20.187 45-45s-20.187-45-45-45zm-361 241c-41.906 0-76-33.645-76-75s34.094-75 76-75c36.22 0 66.522 25.808 73.491 60h-73.491c-6.067 0-11.536 3.655-13.858 9.26-2.321 5.605-1.038 12.057 3.252 16.347l52.206 52.206c-3.541 1.329-17.744 12.187-41.6 12.187zm190.458 241h-80.916l40.458-26.972zm-40.458-187.213-53.787-53.787h107.574zm83.787-83.787h-167.574l-30-30h227.574zm127.213-151c-8.271 0-15-6.729-15-15s6.729-15 15-15 15 6.729 15 15-6.729 15-15 15z" fill="url(#SVGID_1_)"/></g></g></svg>